<?xml version="1.0" encoding="utf-8"?>
<!-- Generator: Adobe Illustrator 24.0.1, SVG Export Plug-In . SVG Version: 6.00 Build 0)  -->
<svg version="1.1" id="Слой_1" xmlns="http://www.w3.org/2000/svg" xmlns:xlink="http://www.w3.org/1999/xlink" x="0px" y="0px"
	 viewBox="0 0 48 48" style="enable-background:new 0 0 48 48;" xml:space="preserve">
<style type="text/css">
	.st0{fill:#566885;}
	.st1{fill:#948E8C;}
</style>
<g id="flat-color-icons:file">
	<path id="Vector" class="st0" d="M40,42c0,1.7-1.3,3-3,3H11c-1.7,0-3-1.3-3-3V6c0-1.7,1.3-3,3-3h17.8c0.8,0,1.6,0.3,2.1,0.9
		l8.2,8.2c0.6,0.6,0.9,1.3,0.9,2.1V42z"/>
	<path id="Vector_2" class="st1" d="M36.8,12.3c0.6,0.6,0.2,1.7-0.7,1.7H30c-0.6,0-1-0.4-1-1V6.9c0-0.9,1.1-1.3,1.7-0.7L36.8,12.3z"
		/>
</g>
<path class="st1" d="M30.3,20.1L30.3,20.1c0,3.8,0,7.7,0,11.5c0,0.4-0.1,0.8-0.2,1.1c-0.6,1.4-2.1,2.1-3.6,1.7
	c-0.8-0.2-1.5-0.9-1.9-1.7c-0.3-0.6-0.3-1.3-0.1-2c0.3-1.1,1.4-2,2.6-2.1c0.8-0.1,1.6,0.2,2.2,0.7c0,0,0,0,0,0c0,0,0,0,0,0l0-4.8
	c0,0,0,0,0,0c0,0,0,0,0,0l-8.7,2.2c0,0,0,0,0,0c0,2.4,0,4.7,0,7.1c0,0.9-0.3,1.6-0.9,2.2c-0.5,0.5-1.2,0.8-2,0.9h-0.2
	c-0.6,0-1.1-0.2-1.5-0.5c-1.2-0.8-1.7-2.4-1-3.8c0.4-0.8,1.2-1.4,2.1-1.5c0.7-0.1,1.4,0,2.1,0.4c0.1,0.1,0.2,0.2,0.4,0.3
	c0,0,0,0,0,0v-8.9c0,0,0,0,0,0L30.3,20.1z"/>
</svg>
